<?xml version="1.0" encoding="UTF-8" standalone="no"?>
<svg
   xmlns:dc="http://purl.org/dc/elements/1.1/"
   xmlns:cc="http://creativecommons.org/ns#"
   xmlns:rdf="http://www.w3.org/1999/02/22-rdf-syntax-ns#"
   xmlns:svg="http://www.w3.org/2000/svg"
   xmlns="http://www.w3.org/2000/svg"
   viewBox="0 0 1440 1440"
   height="1440"
   width="1440"
   xml:space="preserve"
   id="svg2"
   version="1.1"><metadata
     id="metadata8"><rdf:RDF><cc:Work
         rdf:about=""><dc:format>image/svg+xml</dc:format><dc:type
           rdf:resource="http://purl.org/dc/dcmitype/StillImage" /></cc:Work></rdf:RDF></metadata><defs
     id="defs6"><clipPath
       id="clipPath18"
       clipPathUnits="userSpaceOnUse"><path
         id="path16"
         d="M 0,1080 H 1080 V 0 H 0 Z" /></clipPath></defs><g
     transform="matrix(1.3333333,0,0,-1.3333333,0,1440)"
     id="g10"><g
       id="g12"><g
         clip-path="url(#clipPath18)"
         id="g14"><g
           transform="translate(824.0088,201.4912)"
           id="g20"><path
             id="path22"
             style="fill:none;stroke:#9b7c5d;stroke-width:9;stroke-linecap:butt;stroke-linejoin:miter;stroke-miterlimit:10;stroke-dasharray:none;stroke-opacity:1"
             d="m 0,0 c -15.197,-4.482 -32.172,-11.445 -49.264,-22.366 -52.976,-33.85 -76.461,-86.161 -86.771,-120.877" /></g><g
           transform="translate(824.0098,262.1162)"
           id="g24"><path
             id="path26"
             style="fill:none;stroke:#9b7c5d;stroke-width:9;stroke-linecap:butt;stroke-linejoin:miter;stroke-miterlimit:10;stroke-dasharray:none;stroke-opacity:1"
             d="m 0,0 c -34.115,-4.22 -93.424,-16.695 -153.565,-57.873 -70.608,-48.343 -105.536,-111.029 -121.125,-145.996" /></g><g
           transform="translate(824.0352,349.208)"
           id="g28"><path
             id="path30"
             style="fill:none;stroke:#9b7c5d;stroke-width:9;stroke-linecap:butt;stroke-linejoin:miter;stroke-miterlimit:10;stroke-dasharray:none;stroke-opacity:1"
             d="M 0,0 C -32.239,-1.522 -67.474,-6.321 -103.962,-16.578 -290.051,-68.884 -364.62,-222.624 -389.144,-290.961" /></g><g
           transform="translate(217.5049,153.2793)"
           id="g32"><path
             id="path34"
             style="fill:none;stroke:#9b7c5d;stroke-width:9;stroke-linecap:butt;stroke-linejoin:miter;stroke-miterlimit:10;stroke-dasharray:none;stroke-opacity:1"
             d="m 0,0 c 25.852,2.775 69.417,3.808 119.31,-11.746 58.56,-18.256 94.223,-49.504 108.734,-63.691" /></g><g
           transform="translate(217.5054,277.0996)"
           id="g36"><path
             id="path38"
             style="fill:none;stroke:#9b7c5d;stroke-width:9;stroke-linecap:butt;stroke-linejoin:miter;stroke-miterlimit:10;stroke-dasharray:none;stroke-opacity:1"
             d="m 0,0 c 28.407,-1.069 84.678,-6.487 148.148,-34.131 66.597,-29.004 105.166,-66.817 120.715,-83.677" /></g><g
           transform="translate(328.1567,349.7705)"
           id="g40"><path
             id="path42"
             style="fill:none;stroke:#9b7c5d;stroke-width:9;stroke-linecap:butt;stroke-linejoin:miter;stroke-miterlimit:10;stroke-dasharray:none;stroke-opacity:1"
             d="m 0,0 c 25.468,-6.515 54.725,-16.884 85.056,-33.443 65.767,-35.906 101.079,-81.529 115.101,-101.83" /></g><g
           transform="translate(824.0098,349.208)"
           id="g44"><path
             id="path46"
             style="fill:none;stroke:#c69c6d;stroke-width:9;stroke-linecap:butt;stroke-linejoin:miter;stroke-miterlimit:10;stroke-dasharray:none;stroke-opacity:1"
             d="M 0,0 V -290.961 H -606.504 V 0.562" /></g><g
           transform="translate(731.0137,1006.3462)"
           id="g48"><path
             id="path50"
             style="fill:none;stroke:#c69c6d;stroke-width:9;stroke-linecap:butt;stroke-linejoin:miter;stroke-miterlimit:10;stroke-dasharray:none;stroke-opacity:1"
             d="M 0,0 H 92.996 V -437.803" /></g><g
           transform="translate(217.5054,568.543)"
           id="g52"><path
             id="path54"
             style="fill:none;stroke:#c69c6d;stroke-width:9;stroke-linecap:butt;stroke-linejoin:miter;stroke-miterlimit:10;stroke-dasharray:none;stroke-opacity:1"
             d="M 0,0 V 437.803 H 90.225" /></g><g
           transform="translate(608.2129,568.543)"
           id="g56"><path
             id="path58"
             style="fill:none;stroke:#c69c6d;stroke-width:9;stroke-linecap:butt;stroke-linejoin:miter;stroke-miterlimit:10;stroke-dasharray:none;stroke-opacity:1"
             d="M 0,0 H 275.274" /></g><g
           transform="translate(152.2983,568.543)"
           id="g60"><path
             id="path62"
             style="fill:none;stroke:#c69c6d;stroke-width:9;stroke-linecap:butt;stroke-linejoin:miter;stroke-miterlimit:10;stroke-dasharray:none;stroke-opacity:1"
             d="M 0,0 H 355.782" /></g><g
           transform="translate(155.6387,349.3223)"
           id="g64"><path
             id="path66"
             style="fill:none;stroke:#c69c6d;stroke-width:9;stroke-linecap:butt;stroke-linejoin:miter;stroke-miterlimit:10;stroke-dasharray:none;stroke-opacity:1"
             d="M 0,0 H 731.189" /></g><g
           transform="translate(263.396,477.8779)"
           id="g68"><path
             id="path70"
             style="fill:#c69c6d;fill-opacity:1;fill-rule:nonzero;stroke:none"
             d="m 0,0 h -34.534 v 2.878 c 0.973,0.054 2.378,0.135 4.216,0.243 1.837,0.108 3.134,0.27 3.891,0.486 1.189,0.351 2.053,0.831 2.594,1.439 0.54,0.608 0.811,1.452 0.811,2.533 v 41.668 c 0,0.945 -0.199,1.736 -0.595,2.371 -0.397,0.635 -1.333,1.169 -2.81,1.601 -1.081,0.324 -2.442,0.629 -4.08,0.912 -1.64,0.284 -2.982,0.452 -4.027,0.507 v 2.878 H 0 v -2.878 c -1.117,-0.028 -2.451,-0.129 -4,-0.304 -1.549,-0.176 -2.9,-0.399 -4.053,-0.669 -1.369,-0.324 -2.288,-0.852 -2.756,-1.581 -0.468,-0.73 -0.702,-1.54 -0.702,-2.432 V 8.025 c 0,-0.891 0.261,-1.681 0.783,-2.371 0.522,-0.689 1.414,-1.236 2.675,-1.641 C -7.296,3.796 -6.062,3.56 -4.351,3.304 -2.64,3.046 -1.189,2.904 0,2.878 Z" /></g><g
           transform="translate(376.168,477.8779)"
           id="g72"><path
             id="path74"
             style="fill:#c69c6d;fill-opacity:1;fill-rule:nonzero;stroke:none"
             d="m 0,0 h -33.885 v 2.878 c 1.224,0.026 2.801,0.121 4.729,0.283 1.927,0.162 3.251,0.392 3.972,0.69 1.116,0.512 1.936,1.1 2.459,1.762 0.522,0.662 0.784,1.493 0.784,2.493 v 41.831 h -0.811 L -48.909,0.933 h -2.702 l -24.914,50.016 h -0.703 V 16.618 c 0,-3.323 0.279,-5.85 0.838,-7.579 0.558,-1.729 1.413,-2.973 2.567,-3.729 0.792,-0.568 2.432,-1.109 4.918,-1.622 2.486,-0.513 4.107,-0.784 4.864,-0.81 V 0 h -30.967 v 2.878 c 1.621,0.107 3.324,0.31 5.107,0.607 1.783,0.298 3.162,0.744 4.134,1.338 1.261,0.756 2.126,1.918 2.595,3.487 0.467,1.566 0.702,4.187 0.702,7.863 v 29.426 c 0,1.703 -0.27,3.093 -0.811,4.174 -0.54,1.081 -1.315,1.959 -2.323,2.635 -1.118,0.73 -2.486,1.271 -4.108,1.622 -1.621,0.351 -3.225,0.553 -4.809,0.608 v 2.878 h 26.147 l 21.967,-43.172 18.753,36.115 c 0.684,1.324 1.268,2.71 1.755,4.156 0.486,1.448 0.747,2.413 0.783,2.901 H -0.108 V 54.638 C -1.117,54.61 -2.405,54.489 -3.972,54.273 -5.539,54.057 -6.684,53.854 -7.404,53.665 -8.629,53.341 -9.458,52.8 -9.89,52.044 c -0.432,-0.757 -0.648,-1.581 -0.648,-2.473 V 8.106 c 0,-0.946 0.216,-1.743 0.648,-2.391 0.432,-0.649 1.261,-1.216 2.486,-1.702 0.649,-0.271 1.801,-0.521 3.459,-0.75 C -2.288,3.033 -0.973,2.904 0,2.878 Z" /></g><g
           transform="translate(437.9839,501.3867)"
           id="g76"><path
             id="path78"
             style="fill:#c69c6d;fill-opacity:1;fill-rule:nonzero;stroke:none"
             d="M 0,0 -11.616,22.319 -23.065,0 Z M 30.853,-23.509 H -1.023 v 2.878 c 2.81,0.135 5.142,0.405 6.997,0.811 1.856,0.405 2.783,0.905 2.783,1.5 0,0.243 -0.036,0.54 -0.108,0.891 -0.072,0.351 -0.179,0.661 -0.323,0.932 l -6.352,12.89 h -26.919 c -1.01,-1.892 -1.831,-3.54 -2.463,-4.946 -0.632,-1.405 -1.199,-2.702 -1.705,-3.89 -0.469,-1.162 -0.793,-2.108 -0.974,-2.837 -0.181,-0.731 -0.27,-1.324 -0.27,-1.784 0,-1.082 1.135,-1.919 3.404,-2.513 2.27,-0.595 4.829,-0.946 7.676,-1.054 v -2.878 h -28.882 v 2.878 c 0.938,0.054 2.108,0.209 3.513,0.466 1.405,0.257 2.558,0.602 3.459,1.034 1.44,0.73 2.558,1.492 3.351,2.29 0.792,0.796 1.567,1.898 2.323,3.303 3.855,7.215 8.107,15.321 12.755,24.319 4.648,8.999 8.79,17.01 12.43,24.036 h 4.323 l 25.563,-49.611 c 0.54,-1.055 1.152,-1.905 1.837,-2.554 0.684,-0.648 1.639,-1.284 2.864,-1.905 0.829,-0.379 1.909,-0.696 3.243,-0.952 1.332,-0.258 2.45,-0.399 3.351,-0.426 z" /></g><g
           transform="translate(548.1562,532.5156)"
           id="g80"><path
             id="path82"
             style="fill:#c69c6d;fill-opacity:1;fill-rule:nonzero;stroke:none"
             d="m 0,0 c -0.613,-0.027 -1.586,-0.21 -2.918,-0.547 -1.334,-0.339 -2.289,-0.669 -2.864,-0.993 -1.405,-0.648 -2.361,-1.148 -2.864,-1.5 -0.506,-0.352 -1.479,-1.271 -2.919,-2.756 -2.81,-2.973 -5.404,-5.985 -7.782,-9.039 -2.378,-3.054 -5.351,-6.931 -8.918,-11.633 -1.333,-1.729 -2.215,-3.121 -2.648,-4.175 -0.432,-1.053 -0.648,-2.581 -0.648,-4.58 v -10.984 c 0,-0.973 0.261,-1.817 0.784,-2.533 0.522,-0.716 1.413,-1.291 2.675,-1.723 0.756,-0.217 2.107,-0.48 4.053,-0.79 1.945,-0.311 3.513,-0.48 4.702,-0.507 v -2.878 h -35.885 v 2.878 c 1.008,0.054 2.522,0.156 4.54,0.304 2.017,0.148 3.422,0.345 4.215,0.588 1.297,0.405 2.189,0.959 2.675,1.662 0.487,0.702 0.73,1.566 0.73,2.594 v 13.983 c 0,0.433 -0.351,1.223 -1.054,2.371 -0.703,1.149 -1.541,2.426 -2.513,3.831 -2.162,3.134 -4.558,6.526 -7.188,10.174 -2.631,3.648 -4.918,6.769 -6.863,9.362 -1.189,1.54 -2.243,2.703 -3.162,3.487 -0.919,0.783 -1.973,1.471 -3.162,2.066 -0.864,0.406 -1.9,0.716 -3.107,0.933 -1.207,0.216 -2.297,0.35 -3.27,0.405 v 2.878 h 32.727 V 0 c -3.675,-0.055 -6.27,-0.242 -7.783,-0.565 -1.513,-0.324 -2.27,-0.782 -2.27,-1.373 0,-0.163 0.108,-0.445 0.324,-0.849 0.217,-0.404 0.523,-0.916 0.918,-1.538 0.467,-0.702 1.024,-1.506 1.671,-2.411 0.647,-0.905 1.259,-1.777 1.834,-2.614 1.689,-2.404 3.415,-4.801 5.177,-7.192 1.761,-2.391 4.062,-5.505 6.901,-9.341 5.653,6.834 9.964,12.161 12.934,15.984 2.971,3.821 4.457,6.11 4.457,6.865 0,0.621 -0.307,1.12 -0.919,1.497 -0.613,0.378 -1.424,0.674 -2.432,0.89 -1.045,0.215 -2.181,0.357 -3.405,0.424 -1.225,0.068 -2.36,0.142 -3.405,0.223 V 2.878 L 0,2.878 Z" /></g><g
           transform="translate(602.0264,501.3867)"
           id="g84"><path
             id="path86"
             style="fill:#c69c6d;fill-opacity:1;fill-rule:nonzero;stroke:none"
             d="M 0,0 -11.615,22.319 -23.064,0 Z M 30.854,-23.509 H -1.023 v 2.878 c 2.81,0.135 5.142,0.405 6.998,0.811 1.855,0.405 2.783,0.905 2.783,1.5 0,0.243 -0.035,0.54 -0.108,0.891 -0.072,0.351 -0.179,0.661 -0.324,0.932 l -6.351,12.89 h -26.92 c -1.01,-1.892 -1.83,-3.54 -2.461,-4.946 -0.633,-1.405 -1.201,-2.702 -1.705,-3.89 -0.471,-1.162 -0.795,-2.108 -0.975,-2.837 -0.182,-0.731 -0.269,-1.324 -0.269,-1.784 0,-1.082 1.134,-1.919 3.404,-2.513 2.269,-0.595 4.828,-0.946 7.674,-1.054 v -2.878 h -28.88 v 2.878 c 0.937,0.054 2.107,0.209 3.512,0.466 1.406,0.257 2.557,0.602 3.459,1.034 1.44,0.73 2.557,1.492 3.35,2.29 0.793,0.796 1.568,1.898 2.324,3.303 3.856,7.215 8.108,15.321 12.754,24.319 4.649,8.999 8.791,17.01 12.43,24.036 h 4.324 l 25.563,-49.611 c 0.541,-1.055 1.152,-1.905 1.837,-2.554 0.684,-0.648 1.639,-1.284 2.864,-1.905 0.828,-0.379 1.91,-0.696 3.244,-0.952 1.332,-0.258 2.449,-0.399 3.35,-0.426 z" /></g><g
           transform="translate(725.1699,532.5156)"
           id="g88"><path
             id="path90"
             style="fill:#c69c6d;fill-opacity:1;fill-rule:nonzero;stroke:none"
             d="m 0,0 c -1.009,-0.027 -2.559,-0.243 -4.647,-0.648 -2.09,-0.406 -3.586,-0.825 -4.487,-1.257 -1.297,-0.676 -2.171,-1.973 -2.621,-3.891 -0.45,-1.919 -0.675,-4.35 -0.675,-7.296 v -42.113 h -4.702 l -46.477,47.059 v -29.67 c 0,-3.325 0.279,-5.878 0.838,-7.662 0.558,-1.783 1.414,-3.053 2.567,-3.809 0.828,-0.595 2.54,-1.15 5.134,-1.662 2.593,-0.514 4.304,-0.784 5.133,-0.811 v -2.878 H -81.39 v 2.878 c 0.973,0.054 2.613,0.318 4.918,0.79 2.306,0.473 3.747,0.899 4.325,1.278 1.26,0.755 2.125,1.911 2.593,3.464 0.468,1.554 0.702,4.209 0.702,7.965 v 28.332 c 0,1.243 -0.288,2.487 -0.864,3.73 -0.577,1.242 -1.351,2.202 -2.324,2.878 -1.297,0.891 -3.054,1.654 -5.269,2.29 -2.215,0.635 -4.008,0.978 -5.378,1.033 v 2.878 h 21.911 l 43.104,-43.848 v 27.354 c 0,3.35 -0.289,5.924 -0.865,7.72 -0.576,1.796 -1.405,2.992 -2.485,3.586 -1.01,0.513 -2.659,1.013 -4.946,1.499 -2.288,0.487 -4.026,0.756 -5.215,0.811 V 2.878 L 0,2.878 Z" /></g><g
           transform="translate(782.8779,501.3867)"
           id="g92"><path
             id="path94"
             style="fill:#c69c6d;fill-opacity:1;fill-rule:nonzero;stroke:none"
             d="M 0,0 -11.615,22.319 -23.065,0 Z M 30.854,-23.509 H -1.023 v 2.878 c 2.81,0.135 5.142,0.405 6.998,0.811 1.855,0.405 2.783,0.905 2.783,1.5 0,0.243 -0.036,0.54 -0.109,0.891 -0.072,0.351 -0.179,0.661 -0.323,0.932 l -6.351,12.89 h -26.92 c -1.01,-1.892 -1.83,-3.54 -2.462,-4.946 -0.632,-1.405 -1.2,-2.702 -1.705,-3.89 -0.47,-1.162 -0.794,-2.108 -0.975,-2.837 -0.181,-0.731 -0.269,-1.324 -0.269,-1.784 0,-1.082 1.134,-1.919 3.404,-2.513 2.269,-0.595 4.828,-0.946 7.675,-1.054 v -2.878 h -28.881 v 2.878 c 0.937,0.054 2.107,0.209 3.512,0.466 1.406,0.257 2.558,0.602 3.459,1.034 1.441,0.73 2.558,1.492 3.351,2.29 0.792,0.796 1.567,1.898 2.324,3.303 3.855,7.215 8.107,15.321 12.754,24.319 4.648,8.999 8.79,17.01 12.43,24.036 h 4.324 l 25.563,-49.611 c 0.54,-1.055 1.152,-1.905 1.837,-2.554 0.684,-0.648 1.638,-1.284 2.864,-1.905 0.828,-0.379 1.909,-0.696 3.243,-0.952 1.332,-0.258 2.449,-0.399 3.351,-0.426 z" /></g><g
           transform="translate(308.4683,411.0059)"
           id="g96"><path
             id="path98"
             style="fill:#c69c6d;fill-opacity:1;fill-rule:nonzero;stroke:none"
             d="m 0,0 c 1.621,-1.352 2.819,-2.831 3.594,-4.438 0.774,-1.608 1.162,-3.48 1.162,-5.614 0,-5.081 -2.505,-9.268 -7.512,-12.565 -5.009,-3.297 -11.223,-4.945 -18.645,-4.945 -3.424,0 -6.846,0.399 -10.268,1.196 -3.424,0.797 -6.377,1.762 -8.864,2.897 l -2.323,-2.959 h -4.324 l -0.757,19.699 h 4.378 c 0.9,-2.431 1.954,-4.627 3.162,-6.586 1.206,-1.959 2.8,-3.789 4.782,-5.493 1.873,-1.593 4.062,-2.864 6.567,-3.809 2.504,-0.946 5.412,-1.419 8.728,-1.419 2.486,0 4.656,0.243 6.512,0.73 1.855,0.488 3.359,1.178 4.513,2.071 1.152,0.892 2.007,1.941 2.566,3.145 0.559,1.204 0.838,2.591 0.838,4.16 0,2.3 -0.864,4.445 -2.594,6.433 -1.729,1.989 -4.306,3.498 -7.728,4.526 -2.343,0.7 -5.026,1.473 -8.053,2.321 -3.026,0.847 -5.639,1.648 -7.836,2.402 -4.323,1.458 -7.683,3.37 -10.079,5.733 -2.397,2.364 -3.594,5.451 -3.594,9.259 0,2.189 0.595,4.228 1.784,6.119 1.189,1.891 2.882,3.579 5.08,5.065 2.089,1.405 4.557,2.506 7.404,3.302 2.845,0.797 5.818,1.196 8.917,1.196 3.53,0 6.692,-0.405 9.485,-1.216 2.791,-0.811 5.34,-1.757 7.647,-2.837 l 2.215,2.756 H 1.081 L 1.513,12.038 h -4.377 c -0.793,2.189 -1.685,4.282 -2.676,6.282 -0.991,2 -2.279,3.811 -3.864,5.432 -1.549,1.566 -3.441,2.817 -5.674,3.749 -2.234,0.933 -4.972,1.398 -8.215,1.398 -3.423,0 -6.341,-0.824 -8.755,-2.472 -2.414,-1.649 -3.62,-3.661 -3.62,-6.039 0,-2.487 0.773,-4.547 2.323,-6.181 1.549,-1.636 3.801,-2.979 6.756,-4.033 2.629,-0.946 5.215,-1.764 7.755,-2.452 2.54,-0.69 4.999,-1.426 7.377,-2.209 2.162,-0.703 4.242,-1.5 6.242,-2.392 C -3.216,2.229 -1.478,1.188 0,0" /></g><g
           transform="translate(374.3369,408.1279)"
           id="g100"><path
             id="path102"
             style="fill:#c69c6d;fill-opacity:1;fill-rule:nonzero;stroke:none"
             d="M 0,0 -11.616,22.319 -23.065,0 Z M 30.853,-23.509 H -1.023 v 2.878 c 2.81,0.135 5.142,0.405 6.997,0.811 1.856,0.405 2.783,0.905 2.783,1.5 0,0.243 -0.036,0.54 -0.108,0.891 -0.072,0.351 -0.179,0.661 -0.323,0.932 l -6.352,12.89 h -26.919 c -1.01,-1.892 -1.831,-3.54 -2.463,-4.946 -0.632,-1.405 -1.199,-2.702 -1.705,-3.89 -0.469,-1.162 -0.793,-2.108 -0.974,-2.837 -0.181,-0.731 -0.27,-1.324 -0.27,-1.784 0,-1.082 1.135,-1.919 3.404,-2.513 2.27,-0.595 4.829,-0.946 7.676,-1.054 v -2.878 h -28.882 v 2.878 c 0.938,0.054 2.108,0.209 3.513,0.466 1.405,0.257 2.558,0.602 3.459,1.034 1.44,0.73 2.558,1.492 3.351,2.29 0.792,0.796 1.567,1.898 2.323,3.303 3.855,7.215 8.107,15.321 12.755,24.319 4.648,8.999 8.79,17.01 12.43,24.036 h 4.323 l 25.563,-49.611 c 0.54,-1.055 1.152,-1.905 1.837,-2.554 0.684,-0.648 1.639,-1.284 2.864,-1.905 0.829,-0.379 1.909,-0.696 3.243,-0.952 1.332,-0.258 2.45,-0.399 3.351,-0.426 z" /></g><g
           transform="translate(478.2944,427.7461)"
           id="g104"><path
             id="path106"
             style="fill:#c69c6d;fill-opacity:1;fill-rule:nonzero;stroke:none"
             d="m 0,0 h -4.053 c -0.757,2.134 -2.333,4.418 -4.729,6.85 -2.396,2.431 -4.693,3.769 -6.89,4.012 -1.118,0.108 -2.442,0.189 -3.973,0.243 -1.531,0.054 -3.269,0.082 -5.215,0.082 h -12.862 v -23.104 h 8.831 c 2.672,0 4.748,0.209 6.229,0.628 1.481,0.419 2.745,1.06 3.793,1.926 0.723,0.593 1.381,1.519 1.977,2.776 0.597,1.257 0.985,2.601 1.165,4.033 h 4.054 v -22.617 h -4.054 c -0.107,1.189 -0.478,2.539 -1.11,4.053 -0.632,1.514 -1.309,2.607 -2.032,3.283 -1.084,1 -2.447,1.683 -4.09,2.047 -1.643,0.365 -3.621,0.548 -5.932,0.548 h -8.831 v -19.788 c 0,-0.891 0.234,-1.687 0.702,-2.389 0.468,-0.702 1.297,-1.268 2.486,-1.699 0.541,-0.189 1.711,-0.418 3.513,-0.688 1.801,-0.269 3.17,-0.419 4.107,-0.445 v -2.878 H -60.15 v 2.878 c 1.081,0.054 2.521,0.142 4.323,0.264 1.802,0.121 2.973,0.276 3.513,0.465 1.081,0.351 1.865,0.872 2.351,1.561 0.486,0.689 0.73,1.52 0.73,2.492 V 6.039 c 0,0.892 -0.199,1.682 -0.595,2.371 -0.397,0.69 -1.225,1.25 -2.486,1.682 -0.973,0.351 -2.279,0.662 -3.918,0.932 -1.64,0.27 -2.945,0.432 -3.918,0.487 v 2.878 H 0 Z" /></g><g
           transform="translate(536.5972,408.1279)"
           id="g108"><path
             id="path110"
             style="fill:#c69c6d;fill-opacity:1;fill-rule:nonzero;stroke:none"
             d="M 0,0 -11.616,22.319 -23.065,0 Z M 30.853,-23.509 H -1.023 v 2.878 c 2.81,0.135 5.142,0.405 6.997,0.811 1.856,0.405 2.783,0.905 2.783,1.5 0,0.243 -0.036,0.54 -0.108,0.891 -0.072,0.351 -0.18,0.661 -0.323,0.932 l -6.352,12.89 h -26.919 c -1.01,-1.892 -1.831,-3.54 -2.463,-4.946 -0.632,-1.405 -1.199,-2.702 -1.705,-3.89 -0.469,-1.162 -0.793,-2.108 -0.974,-2.837 -0.181,-0.731 -0.27,-1.324 -0.27,-1.784 0,-1.082 1.135,-1.919 3.404,-2.513 2.27,-0.595 4.829,-0.946 7.676,-1.054 v -2.878 h -28.882 v 2.878 c 0.938,0.054 2.108,0.209 3.513,0.466 1.405,0.257 2.558,0.602 3.459,1.034 1.44,0.73 2.558,1.492 3.351,2.29 0.792,0.796 1.567,1.898 2.323,3.303 3.855,7.215 8.107,15.321 12.755,24.319 4.648,8.999 8.79,17.01 12.43,24.036 h 4.323 l 25.562,-49.611 c 0.541,-1.055 1.153,-1.905 1.838,-2.554 0.684,-0.648 1.639,-1.284 2.864,-1.905 0.828,-0.379 1.908,-0.696 3.242,-0.952 1.332,-0.258 2.45,-0.399 3.352,-0.426 z" /></g><g
           transform="translate(627.3135,427.4805)"
           id="g112"><path
             id="path114"
             style="fill:#c69c6d;fill-opacity:1;fill-rule:nonzero;stroke:none"
             d="m 0,0 c 0,3.48 -1.334,6.238 -3.999,8.275 -2.667,2.038 -6.432,3.056 -11.296,3.056 h -9.186 v -24.644 h 7.079 c 4.971,0 9.115,1.193 12.429,3.581 C -1.658,-7.345 0,-4.101 0,0 M 28.427,-42.861 H 7.776 c -4.572,5.377 -8.702,10.024 -12.391,13.943 -3.69,3.918 -7.694,7.957 -12.012,12.119 h -7.854 v -18.239 c 0,-0.946 0.197,-1.777 0.593,-2.493 0.397,-0.717 1.243,-1.264 2.54,-1.642 0.649,-0.189 1.785,-0.365 3.406,-0.527 1.621,-0.162 2.99,-0.257 4.107,-0.283 v -2.878 h -32.427 v 2.878 c 0.866,0.053 2.116,0.148 3.757,0.283 1.639,0.136 2.783,0.31 3.432,0.527 1.08,0.351 1.864,0.864 2.35,1.54 0.487,0.676 0.73,1.54 0.73,2.595 V 6.548 c 0,0.945 -0.181,1.783 -0.54,2.513 -0.362,0.729 -1.208,1.283 -2.54,1.662 -0.902,0.243 -2.073,0.465 -3.513,0.669 -1.442,0.202 -2.667,0.33 -3.676,0.384 v 2.878 h 35.399 c 3.243,0 6.287,-0.25 9.134,-0.75 2.845,-0.5 5.421,-1.303 7.728,-2.411 2.233,-1.081 4.017,-2.493 5.35,-4.236 1.333,-1.742 2,-3.844 2,-6.303 0,-2.216 -0.452,-4.175 -1.352,-5.877 -0.9,-1.702 -2.234,-3.176 -3.999,-4.418 -1.621,-1.162 -3.566,-2.169 -5.837,-3.019 -2.269,-0.852 -4.774,-1.575 -7.512,-2.169 3.784,-3.756 6.926,-6.918 9.431,-9.485 2.504,-2.567 5.575,-5.688 9.214,-9.363 1.586,-1.621 3.018,-2.816 4.297,-3.587 1.278,-0.77 2.549,-1.398 3.81,-1.885 0.936,-0.351 2.108,-0.622 3.513,-0.81 1.405,-0.19 2.575,-0.298 3.513,-0.324 z" /></g><g
           transform="translate(703.0654,384.6191)"
           id="g116"><path
             id="path118"
             style="fill:#c69c6d;fill-opacity:1;fill-rule:nonzero;stroke:none"
             d="m 0,0 h -34.533 v 2.878 c 0.972,0.054 2.378,0.135 4.215,0.243 1.838,0.108 3.134,0.27 3.891,0.486 1.189,0.351 2.054,0.831 2.594,1.439 0.541,0.608 0.811,1.452 0.811,2.533 v 41.668 c 0,0.945 -0.199,1.736 -0.594,2.371 -0.398,0.635 -1.334,1.169 -2.811,1.601 -1.081,0.324 -2.441,0.629 -4.08,0.912 -1.639,0.284 -2.981,0.452 -4.026,0.507 v 2.878 H 0 v -2.878 c -1.117,-0.028 -2.45,-0.129 -3.999,-0.304 -1.55,-0.176 -2.9,-0.399 -4.053,-0.669 -1.37,-0.324 -2.289,-0.852 -2.757,-1.581 -0.468,-0.73 -0.702,-1.54 -0.702,-2.432 V 8.025 c 0,-0.891 0.261,-1.681 0.783,-2.371 0.523,-0.689 1.415,-1.236 2.676,-1.641 C -7.296,3.796 -6.062,3.56 -4.35,3.304 -2.64,3.046 -1.188,2.904 0,2.878 Z" /></g><g
           transform="translate(771.2529,411.0059)"
           id="g120"><path
             id="path122"
             style="fill:#c69c6d;fill-opacity:1;fill-rule:nonzero;stroke:none"
             d="m 0,0 c 1.621,-1.352 2.818,-2.831 3.594,-4.438 0.774,-1.608 1.162,-3.48 1.162,-5.614 0,-5.081 -2.505,-9.268 -7.512,-12.565 -5.009,-3.297 -11.223,-4.945 -18.645,-4.945 -3.423,0 -6.846,0.399 -10.269,1.196 -3.423,0.797 -6.377,1.762 -8.862,2.897 l -2.324,-2.959 h -4.324 l -0.757,19.699 h 4.378 c 0.9,-2.431 1.954,-4.627 3.162,-6.586 1.207,-1.959 2.8,-3.789 4.783,-5.493 1.872,-1.593 4.061,-2.864 6.565,-3.809 2.504,-0.946 5.413,-1.419 8.729,-1.419 2.486,0 4.656,0.243 6.511,0.73 1.856,0.488 3.36,1.178 4.513,2.071 1.153,0.892 2.009,1.941 2.567,3.145 0.559,1.204 0.838,2.591 0.838,4.16 0,2.3 -0.865,4.445 -2.594,6.433 -1.729,1.989 -4.306,3.498 -7.728,4.526 -2.343,0.7 -5.026,1.473 -8.053,2.321 -3.026,0.847 -5.638,1.648 -7.836,2.402 -4.323,1.458 -7.683,3.37 -10.079,5.733 -2.396,2.364 -3.593,5.451 -3.593,9.259 0,2.189 0.593,4.228 1.783,6.119 1.188,1.891 2.882,3.579 5.08,5.065 2.089,1.405 4.557,2.506 7.403,3.302 2.846,0.797 5.819,1.196 8.918,1.196 3.53,0 6.692,-0.405 9.485,-1.216 2.792,-0.811 5.34,-1.757 7.647,-2.837 l 2.215,2.756 H 1.081 L 1.513,12.038 h -4.377 c -0.793,2.189 -1.685,4.282 -2.675,6.282 -0.992,2 -2.279,3.811 -3.864,5.432 -1.55,1.566 -3.442,2.817 -5.675,3.749 -2.234,0.933 -4.972,1.398 -8.215,1.398 -3.423,0 -6.342,-0.824 -8.755,-2.472 -2.414,-1.649 -3.621,-3.661 -3.621,-6.039 0,-2.487 0.774,-4.547 2.324,-6.181 1.549,-1.636 3.801,-2.979 6.755,-4.033 2.63,-0.946 5.216,-1.764 7.756,-2.452 2.54,-0.69 4.999,-1.426 7.377,-2.209 2.161,-0.703 4.242,-1.5 6.242,-2.392 C -3.216,2.229 -1.478,1.188 0,0" /></g><g
           transform="translate(557.7715,699.4131)"
           id="g124"><path
             id="path126"
             style="fill:#9b7c5d;fill-opacity:1;fill-rule:nonzero;stroke:none"
             d="M 0,0 C 0.495,-1.72 0.991,-3.44 1.487,-5.161 10.104,-2.233 18.722,0.695 27.339,3.623 26.945,4.884 26.553,6.145 26.16,7.406 17.439,4.937 8.72,2.469 0,0 m -121.673,115.175 c -6.127,-16.13 -5.478,-18.662 5.422,-24.975 -1.984,9.141 -3.704,17.058 -5.422,24.975 m 77.209,65.854 c -8.277,13.287 -20.42,20.117 -29.482,17 10.645,-6.138 20.063,-11.569 29.482,-17 M 85.947,241.83 c 1.404,0.19 2.806,0.38 4.209,0.571 0,7.977 0.348,15.982 -0.263,23.912 -0.139,1.804 -3.593,3.353 -5.521,5.018 -1.424,-2.132 -4.327,-4.519 -4.013,-6.352 1.344,-7.806 3.64,-15.447 5.588,-23.149 m -113.11,-260.195 1.867,-2.157 c 22.515,2.024 22.744,5.883 17.927,19.173 -7.058,-6.067 -13.425,-11.541 -19.794,-17.016 m -75.858,107.972 c 1.277,0.491 2.554,0.983 3.831,1.474 -5.685,13.848 -11.369,27.695 -17.054,41.544 -3.475,-16.914 4.632,-30.045 13.223,-43.018 m 137.5,212.467 c 11.826,-11.274 22.219,-21.181 35.263,-33.616 0.365,7.333 2.514,13.232 0.5,16.729 -7.336,12.739 -20.124,15.841 -35.763,16.887 M -132.842,118.271 c 1.116,-0.022 2.232,-0.045 3.347,-0.068 13.055,21.316 -2.459,40.474 -3.739,60.708 -1.263,-0.088 -2.527,-0.176 -3.79,-0.264 1.394,-20.125 2.788,-40.251 4.182,-60.376 M 61.605,305.469 c -8.7,10.981 -36.927,18.786 -60.354,11.923 19.829,-3.917 39.658,-7.835 60.354,-11.923 M -88.24,144.401 c 5.921,7.285 11.577,14.245 17.171,21.127 -8.28,4.041 -16.378,7.993 -24.439,11.926 -6.325,-11.178 -4.255,-20.069 7.268,-33.053 M -4.52,-40.735 c -5.897,-4.818 -14.052,-8.307 -14.306,-12.298 -0.693,-10.919 1.941,-22.049 3.31,-33.533 11.95,7.007 15.733,22.11 10.996,45.831 m -50.071,58.102 c -9.654,-8.096 -13.417,-23.203 -9.294,-33.528 2.962,-7.419 8.326,-9.736 17.012,-8.047 -0.042,14.141 4.189,28.761 -7.718,41.575 M 80.656,171.162 c 19.049,27.051 14.655,63.179 -12.569,81.5 4.176,-27.08 8.352,-54.161 12.569,-81.5 m 3.2,-137.859 c 16.871,11.718 20.32,21.675 13.842,38.671 -3.93,10.315 -7.886,20.626 -12.16,30.801 -1.684,4.009 -4.262,7.642 -6.433,11.446 -1.097,-0.361 -2.196,-0.722 -3.294,-1.083 2.665,-26.448 5.331,-52.894 8.045,-79.835 M -4.892,55.877 c -8.935,-12.66 -16.044,-24.983 -25.404,-35.249 -6.893,-7.56 -6.876,-13.19 -0.781,-19.894 2.277,-2.504 6.699,-6.439 8.161,-5.714 6.404,3.175 16.525,7.194 17.206,12.045 2.195,15.65 0.818,31.803 0.818,48.812 m -104.642,108.204 c -7.668,-13.562 4.693,-58.197 22.245,-74.847 0.738,0.517 1.719,0.896 2.203,1.612 0.88,1.299 1.516,2.776 2.165,4.218 7.93,17.631 0.608,31.849 -9.904,45.547 -6.004,7.825 -11.464,16.066 -16.709,23.47 M 10.978,309.036 c -24.585,8.453 -49.457,12.294 -72.598,-2.603 -17.891,-11.518 -36.054,-24.235 -33.685,-52 27.244,36.285 65.638,47.335 106.283,54.603 M -83.195,195.261 c -16.498,15.865 -32.605,31.354 -46.599,44.811 0.225,-25.243 -2.593,-55.065 8.381,-84.499 5.857,21.588 26.706,28.111 38.218,39.688 m 180.782,66.587 c -4.193,-16.748 -3.127,-32.034 2.415,-47.441 7.257,-20.173 13.136,-40.842 20.405,-61.009 2.499,-6.932 7.397,-12.997 12.043,-20.893 11.594,22.382 0.315,98.968 -34.863,129.343 M -102.04,223.142 c -3.155,35.172 -0.404,65.713 28.651,88.058 -10.886,1.467 -20.009,2.616 -29.078,2.288 -22.898,-0.829 -37.709,-18.439 -33.394,-40.85 3.901,-20.262 19.609,-32.952 33.821,-49.496 m 203.946,-23.268 c -0.917,-0.302 -1.833,-0.605 -2.75,-0.907 -1.025,-2.974 -2.091,-5.934 -3.067,-8.923 -5.286,-16.177 -10.8,-32.286 -15.731,-48.572 -3.036,-10.029 -3.008,-19.476 5.38,-28 3.718,-3.778 4.891,-10.1 7.103,-15.316 1.638,-3.862 3.088,-7.803 5.554,-14.082 8.117,9.819 14.488,17.991 21.368,25.708 6.166,6.917 5.593,13.521 2.297,21.765 -4.178,10.449 -6.372,21.685 -9.534,32.55 -3.474,11.945 -7.074,23.853 -10.62,35.777 M 71.564,88.784 c 0,8.995 -0.904,16.904 0.216,24.514 1.611,10.949 -3.963,16.79 -12.561,20.782 -5.114,2.373 -10.73,5.01 -16.162,5.108 -22.109,0.395 -40.984,10.42 -58.019,18.363 4.524,-18.423 9.306,-37.888 14.031,-57.129 25.373,9.502 49.211,2.242 72.495,-11.638 m -132.332,78.4 c -5.174,-5.607 -10.578,-10.521 -14.817,-16.293 -5.305,-7.221 -6.989,-14.693 -1.806,-23.688 6.357,-11.031 5.583,-23.158 0.064,-34.652 -3.422,-7.125 -7.819,-13.809 -10.876,-21.072 -2.017,-4.791 -2.94,-10.223 -3.289,-15.439 -0.123,-1.843 2.516,-4.779 4.571,-5.697 7.858,-3.508 16.012,-6.351 24.016,-9.541 3.582,-1.427 7.071,-3.088 12.24,-5.364 0,4.784 -0.025,7.535 0.004,10.284 0.197,18.633 0.128,37.276 0.718,55.897 0.331,10.429 2.247,20.809 2.568,31.238 0.394,12.774 -0.619,25.384 -13.393,34.327 m -212.215,51.761 c 0.875,-0.37 1.75,-0.74 2.624,-1.11 1.354,1.522 2.855,2.939 4.04,4.583 14.088,19.539 28.521,38.844 42.058,58.759 10.768,15.843 27.153,22.038 44.136,25.366 13.359,2.617 27.789,1.701 37.489,-10.647 3.668,4.296 6.189,8.567 9.852,11.31 16.101,12.058 16.22,11.897 -1.836,22.092 -1.105,0.624 -2.169,1.322 -3.278,1.936 -14.972,8.283 -30.924,8.729 -46.708,3.997 -11.467,-3.437 -22.391,-8.808 -33.327,-13.817 -2.57,-1.177 -4.778,-4.071 -6.191,-6.695 -6.297,-11.693 -11.851,-23.8 -18.425,-35.327 -7.487,-13.131 -16.302,-25.519 -23.484,-38.802 -3.542,-6.55 -4.708,-14.389 -6.95,-21.645 M 210.862,-5.616 c -7.703,-12.247 -18.355,-13.013 -29.893,-10.546 -25.453,5.442 -46.306,18.325 -62.318,38.956 -4.819,6.211 -9.727,12.352 -15.218,19.314 C 99.358,38.564 95.424,35.493 91.898,32.008 82.326,22.544 81.549,8.671 91.741,0.026 114.109,-18.947 138,-35.635 167.935,-40.631 c 13.073,-2.182 25.325,-0.017 36.187,7.8 10.014,7.207 12.394,16.238 6.74,27.215 M -53.699,179.065 c 16.532,-21.896 15.323,-45.962 10.616,-70.571 -4.46,-23.328 -3.92,-46.681 -0.239,-70.04 0.992,-6.301 2.011,-12.597 3.394,-21.247 5.102,5.944 8.495,9.635 11.599,13.555 31.668,40.005 20.972,93.191 1.585,130.079 -5.212,9.916 -15.114,15.676 -26.955,18.224 m 82.22,-185.65 c -1.953,0.428 -2.651,0.828 -3.066,0.631 -2.569,-1.218 -5.133,-2.468 -7.592,-3.894 -20.276,-11.756 -41.927,-19.001 -65.387,-21.008 -20.776,-1.777 -29.761,8.545 -24.062,28.735 1.801,6.379 4.109,12.671 6.804,18.727 4.875,10.953 -2.825,26.04 -14.827,26.43 -4.837,0.156 -12.375,-2.661 -14.26,-6.375 -6.551,-12.91 -12.83,-26.406 -16.166,-40.407 -7.115,-29.854 8.765,-50.645 39.39,-51.248 35.944,-0.708 66.347,13.908 92.129,38.473 2.769,2.637 4.532,6.333 7.037,9.936 m 46.61,304.582 c 5.344,-6.485 8.891,-10.469 12.082,-14.722 12.336,-16.448 24.958,-32.703 36.695,-49.574 9.209,-13.236 13.969,-28.269 14.454,-44.615 0.197,-6.611 1.469,-13.191 2.498,-21.868 15.729,30.6 22.827,69.992 17.388,100.118 -2.225,12.323 -6.183,24.563 -11.09,36.1 -4.153,9.762 -15.488,15.664 -24.221,12.851 -15.536,-5.005 -30.562,-11.588 -47.806,-18.29 M -275.727,184.678 c 0.173,-3.801 -0.336,-7.803 0.706,-11.348 1.097,-3.728 3.678,-7.019 5.61,-10.502 3.395,1.985 7.949,3.177 9.953,6.114 4.79,7.019 9.349,14.509 12.223,22.453 4.117,11.384 12.166,17.814 22.225,23.385 9.846,5.453 20.917,10.625 27.884,18.923 12.081,14.388 23.947,28.641 38.983,40.049 2.742,2.08 4.748,5.106 7.244,7.541 6.014,5.866 4.375,12.176 -2.061,14.476 -8.896,3.178 -19.036,5.912 -28.148,4.794 -18.341,-2.251 -32.639,-12.348 -43.221,-28.135 -12.884,-19.221 -25.992,-38.412 -40.612,-56.298 -7.958,-9.737 -10.867,-19.667 -10.786,-31.452 M -0.636,5.243 C 5.682,7.125 10.153,8.471 14.634,9.789 31.873,14.861 49.087,13.107 66.254,9.44 73.751,7.838 78.46,8.537 77.53,18.321 75.892,35.579 74.766,52.9 74.006,70.22 73.704,77.1 71.968,82.43 65.862,86.1 49.693,95.819 32.77,101.813 13.565,97.517 5.054,95.612 -0.228,89.836 -0.421,81.672 -1.013,56.717 -0.636,31.739 -0.636,5.243 m -72.176,203.943 c 0.282,0.131 0.633,0.195 0.834,0.404 1.972,2.052 3.77,4.297 5.895,6.17 19.904,17.539 38.663,37.134 67.405,39.456 7.881,0.637 15.875,0.151 23.701,1.12 12.956,1.606 25.818,3.976 38.718,6.024 0.234,1.192 0.467,2.384 0.699,3.576 -7.527,7.524 -15.214,14.897 -22.546,22.608 -10.937,11.502 -23.032,16.825 -39.681,13.368 -33.109,-6.873 -64.374,-16.393 -87.541,-43.245 -17.724,-20.544 -12.964,-40.047 12.516,-49.481 m 24.886,-294.354 c 0.415,-4.315 0.544,-10.065 1.578,-15.647 4.306,-23.237 21.575,-38.518 42.929,-38.111 19.941,0.38 34.764,10.623 46.913,25.363 C 68.52,-83.202 72.706,-46.211 75.957,-9.047 76.448,-3.426 53.699,9.167 48.397,6.586 47.383,6.092 46.781,4.759 45.972,3.828 37.15,-6.317 29.729,-18.395 19.135,-26.098 6.743,-35.109 3.128,-45.461 2.404,-59.797 c -0.503,-9.973 -4.595,-20.155 -8.95,-29.359 -1.845,-3.899 -8.223,-6.732 -13.023,-7.74 -2.907,-0.609 -7.597,2.522 -9.82,5.305 -1.247,1.561 0.562,5.963 1.616,8.859 1.067,2.931 3.184,5.471 4.341,8.38 2.818,7.082 0.256,15.318 -5.053,17.082 -7.135,2.371 -15.742,-2.471 -17.47,-10.414 -1.139,-5.239 -1.249,-10.704 -1.971,-17.484 M 74.459,135.545 c 0,13.155 1.368,28.306 -0.301,43.115 -2.954,26.201 -7.754,52.193 -11.577,76.946 -12.891,-1.246 -27.001,-4.165 -40.988,-3.66 -36.816,1.326 -62.986,-17.53 -86.349,-42.689 -0.733,-0.789 -0.777,-2.22 -1.142,-3.351 0.731,0.625 1.463,1.25 2.195,1.875 12.6,-10.721 26.114,-20.555 37.582,-32.378 16.232,-16.736 35.864,-25.342 58.058,-29.906 13.713,-2.82 27.279,-6.357 42.522,-9.952 m -219.177,143.641 c -9.407,-8.203 -18.339,-14.925 -25.936,-22.918 -7.568,-7.961 -13.535,-17.425 -20.727,-25.778 -3.44,-3.995 -7.557,-8.39 -12.278,-10.133 -26.713,-9.859 -40.579,-29.648 -49.516,-55.944 -3.98,-11.711 -6.473,-19.321 2.581,-29.41 10.674,-11.891 19.296,-25.621 28.911,-38.477 2.267,-3.032 5.44,-5.463 7.34,-8.678 5.601,-9.477 13.437,-15.732 23.947,-19.001 4.19,-1.304 8.144,-3.469 12.074,-5.495 13.176,-6.792 26.112,-14.079 39.494,-20.429 8.955,-4.25 14.913,0.365 14.459,10.255 -0.087,1.895 -0.359,3.797 -0.715,5.663 -4.631,24.243 -9.806,48.397 -13.782,72.747 -3.119,19.107 -3.328,38.199 0.36,57.641 5.672,29.907 3.035,59.739 -6.212,89.957 M 83.068,0.051 c -3.916,-24.578 -5.251,-48.033 -11.727,-69.967 -9.112,-30.856 -23.947,-59.227 -57.126,-71.486 -36.284,-13.406 -61.39,9.451 -66.248,42.343 -1.866,12.642 -0.304,25.79 -0.304,38.494 -5.486,0 -12.329,-0.137 -19.165,0.023 -32.361,0.758 -50.007,21.187 -44.705,52.961 1.638,9.813 5.466,19.469 9.617,28.593 4.118,9.054 5.713,17.898 4.111,27.668 -0.589,3.592 -0.982,8.668 0.983,10.982 9.201,10.827 2.142,17.834 -4.629,25.354 -1.216,1.351 -1.586,3.465 -2.347,5.227 -0.772,-0.672 -1.545,-1.344 -2.318,-2.015 -1.927,-15.267 -4.375,-30.492 -5.561,-45.815 -0.583,-7.535 -4.441,-9.629 -10.306,-8.542 -5.803,1.076 -11.458,3.457 -16.901,5.888 -19.286,8.612 -38.527,17.335 -57.601,26.408 -3.494,1.662 -6.43,4.875 -9.092,7.85 -7.805,8.723 -15.466,17.585 -22.937,26.597 -4.416,5.327 -8.394,11.021 -12.515,16.59 -8.441,11.406 -16.252,23.35 -25.477,34.077 -5.93,6.897 -10.362,13.745 -9.574,22.871 1.82,21.099 3.936,42.174 6.14,63.236 0.212,2.028 1.456,4.348 2.945,5.779 18.161,17.47 28.066,40.626 36.333,62.975 5.665,15.313 13.272,21.154 26.846,24.125 1.828,0.4 3.638,1.224 5.258,2.186 32.157,19.12 61.713,10.988 91.376,-7.097 15.14,-9.231 33.411,-9.364 50.037,-5.213 28.829,7.196 58.016,4.391 87.01,6.259 13.639,0.879 25.893,-4.041 35.537,-13.315 7.651,-7.358 15.772,-7.497 24.504,-4.78 10.268,3.193 20.361,7.035 30.328,11.092 17.264,7.029 32.456,0.805 39.07,-16.863 12.913,-34.497 12.679,-69.59 3.776,-104.878 -1.612,-6.39 -4.92,-12.347 -6.567,-18.731 -2.903,-11.247 -6.107,-22.563 -7.333,-34.049 -0.979,-9.172 -2.622,-16.147 -10.11,-23.059 -8.646,-7.979 -13.292,-20.182 -21.545,-28.741 -7.984,-8.278 -7.955,-16.651 -6.944,-26.83 4.032,-40.594 41.787,-69.872 72.733,-76.503 8.951,-1.918 16.961,-0.485 23.949,5.741 2.601,2.318 5.272,4.655 8.233,6.452 6.566,3.985 11.901,1.311 13.093,-6.282 2.119,-13.492 -4.828,-27.981 -16.56,-34.724 -15.763,-9.06 -32.15,-10.359 -49.529,-5.133 -25.152,7.563 -46.271,21.929 -66.462,38.052 -2.418,1.93 -4.956,3.711 -8.296,6.2" /></g><g
           transform="translate(413.0537,978.5991)"
           id="g128"><path
             id="path130"
             style="fill:#c69c6d;fill-opacity:1;fill-rule:nonzero;stroke:none"
             d="m 0,0 c 9.247,-30.218 11.883,-60.05 6.211,-89.957 -3.687,-19.442 -3.479,-38.534 -0.359,-57.641 3.976,-24.35 9.15,-48.504 13.781,-72.747 0.357,-1.866 0.629,-3.768 0.716,-5.663 0.454,-9.89 -5.504,-14.505 -14.459,-10.255 -13.382,6.35 -26.319,13.637 -39.494,20.429 -3.931,2.026 -7.884,4.191 -12.074,5.495 -10.51,3.269 -18.346,9.524 -23.947,19.001 -1.9,3.214 -5.073,5.646 -7.34,8.678 -9.615,12.856 -18.238,26.586 -28.911,38.477 -9.055,10.089 -6.561,17.699 -2.581,29.41 8.936,26.296 22.803,46.085 49.516,55.944 4.721,1.743 8.838,6.138 12.278,10.133 7.192,8.353 13.159,17.817 20.726,25.778 C -18.339,-14.925 -9.407,-8.203 0,0" /></g><g
           transform="translate(632.2305,834.958)"
           id="g132"><path
             id="path134"
             style="fill:#c69c6d;fill-opacity:1;fill-rule:nonzero;stroke:none"
             d="m 0,0 c -15.243,3.595 -28.809,7.132 -42.521,9.952 -22.195,4.564 -41.827,13.171 -58.059,29.906 -11.468,11.823 -24.982,21.657 -37.582,32.378 -0.732,-0.625 -1.463,-1.25 -2.195,-1.875 0.365,1.131 0.409,2.562 1.142,3.351 23.363,25.159 49.533,44.016 86.349,42.689 13.987,-0.505 28.097,2.414 40.988,3.66 C -8.055,95.308 -3.255,69.316 -0.301,43.115 1.368,28.306 0,13.155 0,0" /></g><g
           transform="translate(509.8452,614.2451)"
           id="g136"><path
             id="path138"
             style="fill:#c69c6d;fill-opacity:1;fill-rule:nonzero;stroke:none"
             d="m 0,0 c 0.722,6.78 0.832,12.245 1.972,17.484 1.728,7.943 10.334,12.785 17.469,10.414 5.309,-1.764 7.871,-10 5.054,-17.082 C 23.337,7.907 21.22,5.367 20.153,2.436 19.1,-0.46 17.291,-4.862 18.537,-6.423 c 2.223,-2.783 6.914,-5.914 9.82,-5.305 4.801,1.008 11.179,3.841 13.023,7.74 4.355,9.204 8.448,19.386 8.951,29.359 0.723,14.336 4.338,24.688 16.73,33.699 10.594,7.703 18.016,19.781 26.837,29.926 0.81,0.931 1.411,2.264 2.426,2.758 5.301,2.581 28.051,-10.012 27.559,-15.633 C 120.632,38.957 116.446,1.966 91.42,-28.395 79.271,-43.135 64.449,-53.378 44.507,-53.758 23.153,-54.165 5.885,-38.884 1.579,-15.647 0.544,-10.065 0.415,-4.315 0,0" /></g><g
           transform="translate(484.96,908.5991)"
           id="g140"><path
             id="path142"
             style="fill:#c69c6d;fill-opacity:1;fill-rule:nonzero;stroke:none"
             d="m 0,0 c -25.48,9.434 -30.241,28.937 -12.516,49.481 23.167,26.852 54.432,36.372 87.54,43.245 16.65,3.457 28.745,-1.866 39.681,-13.368 7.332,-7.712 15.02,-15.084 22.547,-22.608 -0.232,-1.192 -0.466,-2.384 -0.699,-3.576 C 123.652,51.126 110.791,48.756 97.835,47.15 90.009,46.181 82.015,46.667 74.134,46.03 45.391,43.708 26.633,24.113 6.729,6.574 4.603,4.701 2.805,2.456 0.833,0.404 0.633,0.195 0.282,0.131 0,0" /></g><g
           transform="translate(557.1357,704.6558)"
           id="g144"><path
             id="path146"
             style="fill:#c69c6d;fill-opacity:1;fill-rule:nonzero;stroke:none"
             d="m 0,0 c 0,26.496 -0.377,51.475 0.215,76.43 0.193,8.164 5.474,13.94 13.986,15.844 19.204,4.296 36.128,-1.697 52.297,-11.417 6.106,-3.67 7.842,-9 8.144,-15.879 0.759,-17.32 1.885,-34.642 3.524,-51.899 C 79.096,3.294 74.387,2.596 66.89,4.197 49.723,7.865 32.509,9.618 15.27,4.546 10.789,3.229 6.317,1.882 0,0" /></g><g
           transform="translate(282.0449,884.0908)"
           id="g148"><path
             id="path150"
             style="fill:#c69c6d;fill-opacity:1;fill-rule:nonzero;stroke:none"
             d="m 0,0 c -0.082,11.785 2.827,21.715 10.786,31.452 14.62,17.886 27.727,37.077 40.612,56.298 10.582,15.787 24.88,25.884 43.22,28.135 9.112,1.118 19.253,-1.616 28.148,-4.794 6.437,-2.3 8.076,-8.61 2.062,-14.476 -2.496,-2.434 -4.502,-5.461 -7.244,-7.541 C 102.548,77.667 90.682,63.413 78.601,49.025 71.634,40.728 60.563,35.556 50.716,30.103 40.658,24.531 32.608,18.102 28.491,6.717 25.618,-1.227 21.059,-8.717 16.268,-15.736 14.264,-18.672 9.71,-19.864 6.316,-21.85 4.384,-18.367 1.802,-15.076 0.706,-11.348 -0.337,-7.803 0.173,-3.801 0,0" /></g><g
           transform="translate(632.9023,997.4102)"
           id="g152"><path
             id="path154"
             style="fill:#c69c6d;fill-opacity:1;fill-rule:nonzero;stroke:none"
             d="m 0,0 c 17.244,6.702 32.271,13.285 47.806,18.29 8.733,2.813 20.068,-3.089 24.221,-12.852 4.908,-11.536 8.866,-23.776 11.09,-36.099 5.439,-30.126 -1.659,-69.518 -17.388,-100.118 -1.029,8.677 -2.301,15.257 -2.498,21.868 -0.485,16.346 -5.245,31.379 -14.454,44.615 C 37.04,-47.425 24.418,-31.17 12.082,-14.722 8.892,-10.469 5.344,-6.485 0,0" /></g><g
           transform="translate(586.292,692.8276)"
           id="g156"><path
             id="path158"
             style="fill:#c69c6d;fill-opacity:1;fill-rule:nonzero;stroke:none"
             d="m 0,0 c -2.505,-3.602 -4.268,-7.298 -7.036,-9.936 -25.782,-24.564 -56.186,-39.181 -92.13,-38.473 -30.624,0.604 -46.504,21.395 -39.39,51.248 3.337,14.001 9.616,27.498 16.166,40.407 1.885,3.714 9.424,6.532 14.261,6.375 12.002,-0.389 19.701,-15.476 14.827,-26.43 -2.695,-6.055 -5.004,-12.348 -6.804,-18.727 -5.7,-20.19 3.286,-30.511 24.061,-28.735 23.46,2.007 45.111,9.253 65.388,21.008 2.459,1.426 5.022,2.677 7.592,3.894 C -2.65,0.828 -1.952,0.428 0,0" /></g><g
           transform="translate(504.0728,878.478)"
           id="g160"><path
             id="path162"
             style="fill:#c69c6d;fill-opacity:1;fill-rule:nonzero;stroke:none"
             d="m 0,0 c 11.841,-2.548 21.743,-8.308 26.955,-18.224 19.386,-36.888 30.083,-90.074 -1.585,-130.079 -3.104,-3.92 -6.497,-7.611 -11.599,-13.555 -1.383,8.65 -2.402,14.946 -3.395,21.247 -3.681,23.359 -4.221,46.712 0.24,70.04 C 15.322,-45.962 16.532,-21.896 0,0" /></g><g
           transform="translate(768.6338,693.7969)"
           id="g164"><path
             id="path166"
             style="fill:#c69c6d;fill-opacity:1;fill-rule:nonzero;stroke:none"
             d="m 0,0 c 5.653,-10.977 3.273,-20.007 -6.74,-27.215 -10.863,-7.817 -23.114,-9.982 -36.188,-7.8 -29.934,4.996 -53.825,21.684 -76.193,40.657 -10.192,8.645 -9.415,22.518 0.157,31.982 3.526,3.485 7.46,6.556 11.534,10.1 5.492,-6.962 10.4,-13.103 15.219,-19.313 C -76.199,7.779 -55.347,-5.104 -29.894,-10.546 -18.355,-13.013 -7.703,-12.247 0,0" /></g><g
           transform="translate(284.7886,918.3579)"
           id="g168"><path
             id="path170"
             style="fill:#c69c6d;fill-opacity:1;fill-rule:nonzero;stroke:none"
             d="m 0,0 c 2.242,7.256 3.408,15.095 6.95,21.646 7.182,13.282 15.997,25.67 23.484,38.801 6.574,11.528 12.128,23.635 18.425,35.327 1.412,2.624 3.621,5.518 6.191,6.695 10.936,5.01 21.86,10.38 33.326,13.818 15.785,4.731 31.737,4.285 46.708,-3.998 1.11,-0.614 2.174,-1.312 3.279,-1.936 18.056,-10.195 17.937,-10.034 1.836,-22.092 -3.663,-2.743 -6.184,-7.014 -9.852,-11.309 -9.7,12.347 -24.13,13.263 -37.489,10.646 C 75.875,84.271 59.49,78.075 48.722,62.232 35.185,42.317 20.752,23.012 6.664,3.473 5.479,1.829 3.978,0.413 2.624,-1.11 1.75,-0.74 0.875,-0.37 0,0" /></g><g
           transform="translate(497.0039,866.5967)"
           id="g172"><path
             id="path174"
             style="fill:#c69c6d;fill-opacity:1;fill-rule:nonzero;stroke:none"
             d="m 0,0 c 12.773,-8.942 13.787,-21.553 13.393,-34.326 -0.321,-10.429 -2.238,-20.809 -2.568,-31.239 -0.59,-18.621 -0.521,-37.263 -0.718,-55.896 -0.029,-2.75 -0.004,-5.5 -0.004,-10.285 -5.169,2.276 -8.659,3.937 -12.241,5.365 -8.004,3.19 -16.157,6.032 -24.016,9.541 -2.054,0.917 -4.694,3.854 -4.571,5.696 0.35,5.216 1.272,10.649 3.289,15.439 3.058,7.263 7.455,13.947 10.876,21.072 5.519,11.495 6.293,23.621 -0.063,34.653 -5.183,8.994 -3.499,16.467 1.805,23.688 C -10.578,-10.521 -5.174,-5.606 0,0" /></g><g
           transform="translate(629.3359,788.1968)"
           id="g176"><path
             id="path178"
             style="fill:#c69c6d;fill-opacity:1;fill-rule:nonzero;stroke:none"
             d="m 0,0 c -23.284,13.88 -47.122,21.14 -72.495,11.638 -4.726,19.241 -9.507,38.707 -14.031,57.13 17.035,-7.944 35.91,-17.968 58.018,-18.364 5.433,-0.097 11.049,-2.735 16.162,-5.108 C -3.747,41.304 1.826,35.463 0.216,24.514 -0.904,16.904 0,8.995 0,0" /></g><g
           transform="translate(659.6777,899.2871)"
           id="g180"><path
             id="path182"
             style="fill:#c69c6d;fill-opacity:1;fill-rule:nonzero;stroke:none"
             d="m 0,0 c 3.546,-11.924 7.146,-23.832 10.62,-35.777 3.161,-10.865 5.356,-22.101 9.533,-32.55 3.297,-8.244 3.869,-14.848 -2.297,-21.765 -6.879,-7.717 -13.251,-15.889 -21.368,-25.708 -2.466,6.279 -3.916,10.22 -5.553,14.082 -2.212,5.216 -3.385,11.538 -7.103,15.316 -8.389,8.524 -8.416,17.971 -5.38,28 4.931,16.286 10.444,32.395 15.731,48.572 0.976,2.989 2.042,5.949 3.067,8.923 C -1.833,-0.605 -0.917,-0.302 0,0" /></g><g
           transform="translate(455.7314,922.5552)"
           id="g184"><path
             id="path186"
             style="fill:#c69c6d;fill-opacity:1;fill-rule:nonzero;stroke:none"
             d="m 0,0 c -14.212,16.543 -29.92,29.234 -33.821,49.496 -4.315,22.411 10.496,40.021 33.394,40.85 9.069,0.328 18.192,-0.821 29.078,-2.288 C -0.404,65.713 -3.155,35.172 0,0" /></g><g
           transform="translate(655.3584,961.2612)"
           id="g188"><path
             id="path190"
             style="fill:#c69c6d;fill-opacity:1;fill-rule:nonzero;stroke:none"
             d="m 0,0 c 35.178,-30.375 46.457,-106.961 34.863,-129.343 -4.646,7.896 -9.544,13.961 -12.043,20.893 C 15.551,-88.283 9.672,-67.614 2.415,-47.441 -3.127,-32.034 -4.193,-16.748 0,0" /></g><g
           transform="translate(474.5762,894.6743)"
           id="g192"><path
             id="path194"
             style="fill:#c69c6d;fill-opacity:1;fill-rule:nonzero;stroke:none"
             d="m 0,0 c -11.512,-11.578 -32.361,-18.101 -38.217,-39.688 -10.975,29.434 -8.157,59.255 -8.382,84.499 C -32.604,31.354 -16.498,15.865 0,0" /></g><g
           transform="translate(568.749,1008.4492)"
           id="g196"><path
             id="path198"
             style="fill:#c69c6d;fill-opacity:1;fill-rule:nonzero;stroke:none"
             d="m 0,0 c -40.645,-7.269 -79.039,-18.318 -106.282,-54.603 -2.369,27.765 15.793,40.482 33.684,51.999 C -49.457,12.294 -24.585,8.453 0,0" /></g><g
           transform="translate(448.2378,863.4941)"
           id="g200"><path
             id="path202"
             style="fill:#c69c6d;fill-opacity:1;fill-rule:nonzero;stroke:none"
             d="m 0,0 c 5.245,-7.404 10.705,-15.646 16.709,-23.47 10.512,-13.698 17.834,-27.916 9.903,-45.547 -0.649,-1.442 -1.284,-2.919 -2.164,-4.218 -0.485,-0.716 -1.465,-1.095 -2.203,-1.612 C 4.693,-58.197 -7.668,-13.563 0,0" /></g><g
           transform="translate(552.8799,755.2905)"
           id="g204"><path
             id="path206"
             style="fill:#c69c6d;fill-opacity:1;fill-rule:nonzero;stroke:none"
             d="m 0,0 c 0,-17.009 1.377,-33.162 -0.818,-48.813 -0.681,-4.851 -10.802,-8.87 -17.206,-12.044 -1.462,-0.725 -5.884,3.21 -8.161,5.714 -6.096,6.704 -6.112,12.334 0.781,19.893 C -16.044,-24.984 -8.936,-12.66 0,0" /></g><g
           transform="translate(641.6279,732.7163)"
           id="g208"><path
             id="path210"
             style="fill:#c69c6d;fill-opacity:1;fill-rule:nonzero;stroke:none"
             d="m 0,0 c -2.715,26.94 -5.381,53.387 -8.046,79.834 1.099,0.362 2.197,0.723 3.295,1.084 C -2.58,77.114 -0.002,73.481 1.682,69.472 5.955,59.297 9.911,48.985 13.842,38.67 20.319,21.674 16.87,11.718 0,0" /></g><g
           transform="translate(638.4277,870.5752)"
           id="g212"><path
             id="path214"
             style="fill:#c69c6d;fill-opacity:1;fill-rule:nonzero;stroke:none"
             d="M 0,0 C -4.217,27.339 -8.394,54.419 -12.569,81.5 14.654,63.179 19.049,27.051 0,0" /></g><g
           transform="translate(503.1807,716.7803)"
           id="g216"><path
             id="path218"
             style="fill:#c69c6d;fill-opacity:1;fill-rule:nonzero;stroke:none"
             d="m 0,0 c 11.907,-12.814 7.676,-27.435 7.718,-41.576 -8.686,-1.689 -14.05,0.629 -17.012,8.048 C -13.417,-23.204 -9.654,-8.096 0,0" /></g><g
           transform="translate(553.252,658.6777)"
           id="g220"><path
             id="path222"
             style="fill:#c69c6d;fill-opacity:1;fill-rule:nonzero;stroke:none"
             d="m 0,0 c 4.736,-23.721 0.953,-38.823 -10.996,-45.831 -1.369,11.484 -4.004,22.615 -3.31,33.534 C -14.053,-8.306 -5.897,-4.818 0,0" /></g><g
           transform="translate(469.5317,843.814)"
           id="g224"><path
             id="path226"
             style="fill:#c69c6d;fill-opacity:1;fill-rule:nonzero;stroke:none"
             d="M 0,0 C -11.523,12.984 -13.594,21.875 -7.268,33.053 0.792,29.12 8.891,25.168 17.171,21.127 11.577,14.245 5.92,7.285 0,0" /></g><g
           transform="translate(619.377,1000.9536)"
           id="g228"><path
             id="path230"
             style="fill:#c69c6d;fill-opacity:1;fill-rule:nonzero;stroke:none"
             d="M 0,0 C -20.696,5.196 -40.525,10.174 -60.354,15.152 -36.928,23.875 -8.7,13.956 0,0" /></g><g
           transform="translate(424.9297,817.6841)"
           id="g232"><path
             id="path234"
             style="fill:#c69c6d;fill-opacity:1;fill-rule:nonzero;stroke:none"
             d="m 0,0 c -1.394,20.125 -2.788,40.251 -4.183,60.376 1.264,0.088 2.528,0.176 3.791,0.264 C 0.888,40.406 16.402,21.248 3.347,-0.068 2.231,-0.045 1.116,-0.022 0,0" /></g><g
           transform="translate(592.25,1001.4873)"
           id="g236"><path
             id="path238"
             style="fill:#c69c6d;fill-opacity:1;fill-rule:nonzero;stroke:none"
             d="m 0,0 c 15.64,-1.046 28.428,-4.148 35.764,-16.887 2.013,-3.497 -0.135,-9.396 -0.5,-16.729 C 22.22,-21.181 11.826,-11.274 0,0" /></g><g
           transform="translate(454.75,789.02)"
           id="g240"><path
             id="path242"
             style="fill:#c69c6d;fill-opacity:1;fill-rule:nonzero;stroke:none"
             d="M 0,0 C -8.59,12.973 -16.698,26.104 -13.222,43.018 -7.538,29.169 -1.853,15.322 3.832,1.474 2.555,0.983 1.277,0.491 0,0" /></g><g
           transform="translate(530.6089,681.0483)"
           id="g244"><path
             id="path246"
             style="fill:#c69c6d;fill-opacity:1;fill-rule:nonzero;stroke:none"
             d="M 0,0 C 6.368,5.475 12.736,10.949 19.793,17.016 24.611,3.726 24.381,-0.133 1.866,-2.158 Z" /></g><g
           transform="translate(643.7187,941.2432)"
           id="g248"><path
             id="path250"
             style="fill:#c69c6d;fill-opacity:1;fill-rule:nonzero;stroke:none"
             d="m 0,0 c -1.948,7.702 -4.244,15.343 -5.588,23.149 -0.314,1.832 2.589,4.22 4.013,6.352 1.928,-1.666 5.382,-3.214 5.52,-5.018 C 4.557,16.553 4.209,8.548 4.209,0.571 2.806,0.38 1.403,0.19 0,0" /></g><g
           transform="translate(513.3071,880.4424)"
           id="g252"><path
             id="path254"
             style="fill:#c69c6d;fill-opacity:1;fill-rule:nonzero;stroke:none"
             d="M 0,0 C -9.418,5.431 -18.837,10.862 -29.482,17 -20.419,20.117 -8.276,13.287 0,0" /></g><g
           transform="translate(436.0981,814.5879)"
           id="g256"><path
             id="path258"
             style="fill:#c69c6d;fill-opacity:1;fill-rule:nonzero;stroke:none"
             d="M 0,0 C 1.719,-7.917 3.438,-15.834 5.422,-24.975 -5.478,-18.662 -6.126,-16.13 0,0" /></g><g
           transform="translate(557.7715,699.4131)"
           id="g260"><path
             id="path262"
             style="fill:#c69c6d;fill-opacity:1;fill-rule:nonzero;stroke:none"
             d="M 0,0 C 8.72,2.469 17.439,4.937 26.16,7.406 26.553,6.145 26.945,4.884 27.339,3.623 18.722,0.695 10.104,-2.233 1.487,-5.161 0.991,-3.44 0.495,-1.72 0,0" /></g></g></g></g></svg>